<svg width="375" height="495" viewBox="0 0 375 495" fill="none" xmlns="http://www.w3.org/2000/svg">
<g filter="url(#filter0_d_61_853)">
<rect y="-0.00012207" width="375" height="495" fill="url(#paint0_linear_61_853)"/>
</g>
<path d="M-242.238 82.0631C171.286 -15.7404 911.6 -243.94 564.66 -374.311C130.985 -537.274 1947.88 -632.935 1564.55 -821.761" stroke="url(#paint1_linear_61_853)"/>
<path d="M-187.464 201.614C226.061 103.811 966.374 -124.389 619.434 -254.759C185.76 -417.723 2002.66 -513.384 1619.33 -702.21" stroke="url(#paint2_linear_61_853)"/>
<path d="M-132.689 321.166C280.835 223.362 1021.15 -4.83746 674.209 -135.208C240.534 -298.171 2057.43 -393.833 1674.1 -582.658" stroke="url(#paint3_linear_61_853)"/>
<defs>
<filter id="filter0_d_61_853" x="-32.4" y="-28.4001" width="439.8" height="559.8" filterUnits="userSpaceOnUse" color-interpolation-filters="sRGB">
<feFlood flood-opacity="0" result="BackgroundImageFix"/>
<feColorMatrix in="SourceAlpha" type="matrix" values="0 0 0 0 0 0 0 0 0 0 0 0 0 0 0 0 0 0 127 0" result="hardAlpha"/>
<feOffset dy="4"/>
<feGaussianBlur stdDeviation="16.2"/>
<feComposite in2="hardAlpha" operator="out"/>
<feColorMatrix type="matrix" values="0 0 0 0 0 0 0 0 0 0 0 0 0 0 0 0 0 0 0.25 0"/>
<feBlend mode="normal" in2="BackgroundImageFix" result="effect1_dropShadow_61_853"/>
<feBlend mode="normal" in="SourceGraphic" in2="effect1_dropShadow_61_853" result="shape"/>
</filter>
<linearGradient id="paint0_linear_61_853" x1="187.5" y1="-0.00012207" x2="187.5" y2="495" gradientUnits="userSpaceOnUse">
<stop stop-color="#484848"/>
<stop offset="1" stop-color="#484848"/>
</linearGradient>
<linearGradient id="paint1_linear_61_853" x1="847.493" y1="-996.62" x2="538.051" y2="272.341" gradientUnits="userSpaceOnUse">
<stop stop-color="#00FF57"/>
<stop offset="1" stop-color="#00FFB3"/>
</linearGradient>
<linearGradient id="paint2_linear_61_853" x1="902.268" y1="-877.068" x2="592.825" y2="391.892" gradientUnits="userSpaceOnUse">
<stop stop-color="#00FF57"/>
<stop offset="1" stop-color="#00FFB3"/>
</linearGradient>
<linearGradient id="paint3_linear_61_853" x1="957.043" y1="-757.517" x2="647.6" y2="511.443" gradientUnits="userSpaceOnUse">
<stop stop-color="#00FF57"/>
<stop offset="1" stop-color="#00FFB3"/>
</linearGradient>
</defs>
</svg>
