<svg width="46" height="45" viewBox="0 0 46 45" fill="none" xmlns="http://www.w3.org/2000/svg">
<path d="M23.183 0C10.6377 0 0.456055 10.0798 0.456055 22.4995C0.456055 34.9192 10.6377 44.9989 23.183 44.9989C35.7283 44.9989 45.91 34.9192 45.91 22.4995C45.91 10.0798 35.7283 0 23.183 0ZM33.7283 15.2996C33.3874 18.8546 31.9102 27.4944 31.1602 31.4768C30.842 33.1642 30.2056 33.7267 29.6147 33.7942C28.2966 33.9067 27.2966 32.9392 26.0239 32.1067C24.0239 30.8018 22.8876 29.9918 20.9558 28.7318C18.7058 27.2694 20.1603 26.4594 21.4558 25.1544C21.7967 24.8169 27.6148 19.5745 27.7284 19.1021C27.7442 19.0305 27.7421 18.9562 27.7223 18.8856C27.7025 18.815 27.6656 18.7503 27.6148 18.6971C27.4784 18.5846 27.2966 18.6296 27.1375 18.6521C26.933 18.6971 23.7512 20.7895 17.5467 24.9294C16.6376 25.5369 15.8195 25.8519 15.0922 25.8294C14.274 25.8069 12.7286 25.3794 11.5695 24.9969C10.1377 24.5469 9.02412 24.2994 9.11503 23.5119C9.16048 23.107 9.72865 22.702 10.7968 22.2745C17.4331 19.417 21.8421 17.5271 24.0466 16.6271C30.3647 14.0172 31.6602 13.5672 32.5238 13.5672C32.7056 13.5672 33.1374 13.6122 33.4101 13.8372C33.6374 14.0172 33.7056 14.2647 33.7283 14.4447C33.7056 14.5797 33.751 14.9846 33.7283 15.2996Z" fill="url(#paint0_linear_82_3430)"/>
<defs>
<linearGradient id="paint0_linear_82_3430" x1="23.183" y1="0" x2="23.183" y2="44.9989" gradientUnits="userSpaceOnUse">
<stop stop-color="#00FF57"/>
<stop offset="1" stop-color="#00FFB3"/>
</linearGradient>
</defs>
</svg>
