<svg width="46" height="45" viewBox="0 0 46 45" fill="none" xmlns="http://www.w3.org/2000/svg">
<path d="M25.0646 0C27.6214 0.00674984 28.9191 0.0202495 30.0395 0.0517488L30.4804 0.0674984C30.9895 0.0854979 31.4918 0.107997 32.0986 0.134997C34.5167 0.247494 36.1667 0.625486 37.6144 1.18122C39.1144 1.75271 40.378 2.52669 41.6416 3.77541C42.7973 4.90015 43.6915 6.26068 44.2621 7.76232C44.8234 9.19554 45.2052 10.829 45.3189 13.2252C45.3461 13.8237 45.3689 14.3209 45.387 14.8272L45.4007 15.2636C45.4348 16.3706 45.4484 17.6553 45.453 20.1865L45.4552 21.865V24.8124C45.4608 26.4535 45.4434 28.0947 45.403 29.7353L45.3893 30.1718C45.3711 30.678 45.3484 31.1753 45.3211 31.7738C45.2075 34.17 44.8211 35.8012 44.2621 37.2366C43.6932 38.7391 42.7987 40.1 41.6416 41.2235C40.5052 42.3672 39.131 43.2524 37.6144 43.8177C36.1667 44.3735 34.5167 44.7515 32.0986 44.864C31.5593 44.8891 31.0199 44.9116 30.4804 44.9314L30.0395 44.945C28.9191 44.9765 27.6214 44.9922 25.0646 44.9967L23.3692 44.999H20.3942C18.7357 45.0046 17.0773 44.9874 15.4193 44.9472L14.9784 44.9337C14.4389 44.9135 13.8995 44.8902 13.3602 44.864C10.9421 44.7515 9.29209 44.3735 7.84211 43.8177C6.32547 43.2538 4.95174 42.3684 3.81717 41.2235C2.66047 40.0992 1.76543 38.7386 1.19448 37.2366C0.633121 35.8034 0.251308 34.17 0.137673 31.7738C0.112352 31.2399 0.0896253 30.7059 0.0694922 30.1718L0.058129 29.7353C0.0162478 28.0947 -0.00269334 26.4536 0.00131135 24.8124V20.1865C-0.00503167 18.5454 0.0116365 16.9043 0.0513108 15.2636L0.0672196 14.8272C0.0854012 14.3209 0.108128 13.8237 0.1354 13.2252C0.249035 10.829 0.630848 9.19779 1.1922 7.76232C1.76291 6.25914 2.65973 4.89819 3.81944 3.77541C4.95372 2.63126 6.32655 1.74593 7.84211 1.18122C9.29209 0.625486 10.9398 0.247494 13.3602 0.134997C13.9648 0.107997 14.4693 0.0854979 14.9784 0.0674984L15.4193 0.0539986C17.0765 0.0140233 18.7342 -0.00322799 20.3919 0.00224978L25.0646 0ZM22.7283 11.2497C19.7145 11.2497 16.8241 12.435 14.6931 14.5447C12.562 16.6544 11.3648 19.5159 11.3648 22.4995C11.3648 25.4831 12.562 28.3445 14.6931 30.4542C16.8241 32.564 19.7145 33.7492 22.7283 33.7492C25.7421 33.7492 28.6324 32.564 30.7635 30.4542C32.8945 28.3445 34.0917 25.4831 34.0917 22.4995C34.0917 19.5159 32.8945 16.6544 30.7635 14.5447C28.6324 12.435 25.7421 11.2497 22.7283 11.2497ZM22.7283 15.7496C23.6236 15.7495 24.5103 15.9239 25.3375 16.263C26.1648 16.6021 26.9165 17.0991 27.5497 17.7258C28.1829 18.3525 28.6853 19.0965 29.0281 19.9154C29.3708 20.7343 29.5473 21.6119 29.5475 22.4984C29.5476 23.3848 29.3714 24.2625 29.0289 25.0815C28.6864 25.9005 28.1843 26.6447 27.5513 27.2715C26.9183 27.8984 26.1668 28.3957 25.3396 28.7351C24.5125 29.0744 23.6259 29.2492 22.7305 29.2493C20.9223 29.2493 19.1881 28.5382 17.9094 27.2723C16.6308 26.0065 15.9125 24.2896 15.9125 22.4995C15.9125 20.7093 16.6308 18.9925 17.9094 17.7266C19.1881 16.4608 20.9223 15.7496 22.7305 15.7496M34.6622 7.87482C33.9087 7.87482 33.1862 8.17113 32.6534 8.69856C32.1206 9.22599 31.8213 9.94135 31.8213 10.6873C31.8213 11.4332 32.1206 12.1485 32.6534 12.6759C33.1862 13.2034 33.9087 13.4997 34.6622 13.4997C35.4156 13.4997 36.1382 13.2034 36.671 12.6759C37.2038 12.1485 37.5031 11.4332 37.5031 10.6873C37.5031 9.94135 37.2038 9.22599 36.671 8.69856C36.1382 8.17113 35.4156 7.87482 34.6622 7.87482Z" fill="url(#paint0_linear_82_3431)"/>
<defs>
<linearGradient id="paint0_linear_82_3431" x1="22.7281" y1="0" x2="22.7281" y2="45" gradientUnits="userSpaceOnUse">
<stop stop-color="#00FF57"/>
<stop offset="1" stop-color="#00FFB3"/>
</linearGradient>
</defs>
</svg>
